<?xml version="1.0" encoding="UTF-8"?>
<svg width="53px" height="82px" viewBox="0 0 53 82" version="1.1" xmlns="http://www.w3.org/2000/svg" xmlns:xlink="http://www.w3.org/1999/xlink">
    <!-- Generator: sketchtool 63.1 (101010) - https://sketch.com -->
    <title>341947A2-A8E6-43DA-8DF8-5EC5B568CBB1</title>
    <desc>Created with sketchtool.</desc>
    <g id="Desktop" stroke="none" stroke-width="1" fill="none" fill-rule="evenodd" stroke-linejoin="round">
        <g id="WFL-Landing-1-(L)" transform="translate(-928.000000, -1459.000000)" stroke="#00B3BE" stroke-width="1.35">
            <g id="Content/Homepage/Desktop/ValueProp" transform="translate(0.000000, 1304.000000)">
                <g id="Value-Props---An-Immediate-Difference">
                    <g id="Group-31" transform="translate(928.000000, 155.000000)">
                        <polyline id="Stroke-1" stroke-linecap="round" points="30.29688 72.05292 27.90468 78.38712 31.22748 77.89392 33.39468 80.46072 35.78868 74.12832"></polyline>
                        <polyline id="Stroke-3" stroke-linecap="round" points="43.53678 71.85258 45.92898 78.18678 42.60618 77.69358 40.43898 80.26038 38.04498 73.92798"></polyline>
                        <path d="M29.18412,71.41662 C28.84752,68.55822 27.86112,66.19662 25.93152,63.64242 C27.86112,61.09182 28.84752,58.72662 29.18412,55.86822 C32.04072,55.53702 34.40412,54.54702 36.95652,52.61922 C39.50892,54.54702 41.87412,55.53702 44.73072,55.86822 C45.06372,58.72482 46.05192,61.09002 47.98152,63.64242 C46.05192,66.19842 45.06372,68.56002 44.73072,71.41662 C41.87412,71.74962 39.51072,72.73782 36.95652,74.66742 C34.40232,72.73782 32.03892,71.74962 29.18412,71.41662 Z" id="Stroke-5" stroke-linecap="round"></path>
                        <path d="M42.99174,63.64188 C42.99174,66.97008 40.28454,69.67728 36.95634,69.67728 C33.62994,69.67728 30.92454,66.97008 30.92454,63.64188 C30.92454,60.31548 33.62994,57.60828 36.95634,57.60828 C40.28454,57.60828 42.99174,60.31548 42.99174,63.64188 Z" id="Stroke-7" stroke-linecap="round"></path>
                        <polyline id="Stroke-9" points="28.2033 67.19796 0.6741 67.13496 0.6741 0.67536 51.9885 0.67536 51.9885 62.00316 51.9885 66.48516 51.9885 67.13496 45.9297 67.13496"></polyline>
                        <line x1="4.5783" y1="5.98734" x2="48.3075" y2="5.98734" id="Stroke-11" stroke-linecap="round"></line>
                        <line x1="4.5783" y1="11.93058" x2="48.3075" y2="11.93058" id="Stroke-13" stroke-linecap="round"></line>
                        <line x1="4.5783" y1="17.87364" x2="48.3075" y2="17.87364" id="Stroke-15" stroke-linecap="round"></line>
                        <line x1="4.5783" y1="23.23674" x2="48.3075" y2="23.23674" id="Stroke-17" stroke-linecap="round"></line>
                        <line x1="4.5783" y1="29.17998" x2="48.3075" y2="29.17998" id="Stroke-19" stroke-linecap="round"></line>
                        <line x1="4.5783" y1="35.12304" x2="48.3075" y2="35.12304" id="Stroke-21" stroke-linecap="round"></line>
                        <line x1="4.5783" y1="41.30532" x2="48.3075" y2="41.30532" id="Stroke-23" stroke-linecap="round"></line>
                        <line x1="4.5783" y1="47.24856" x2="48.6621" y2="47.24856" id="Stroke-25" stroke-linecap="round"></line>
                        <line x1="4.5783" y1="53.19162" x2="25.0677" y2="53.19162" id="Stroke-27" stroke-linecap="round"></line>
                        <line x1="4.5783" y1="59.20866" x2="18.6813" y2="59.20866" id="Stroke-29" stroke-linecap="round"></line>
                    </g>
                </g>
            </g>
        </g>
    </g>
</svg>