<?xml version="1.0" encoding="UTF-8"?>
<svg width="108px" height="70px" viewBox="0 0 108 70" version="1.1" xmlns="http://www.w3.org/2000/svg" xmlns:xlink="http://www.w3.org/1999/xlink">
    <!-- Generator: sketchtool 63.1 (101010) - https://sketch.com -->
    <title>C34FB058-FF93-485D-9D9C-E99C01C26CD9</title>
    <desc>Created with sketchtool.</desc>
    <g id="Desktop" stroke="none" stroke-width="1" fill="none" fill-rule="evenodd" stroke-linecap="round" stroke-linejoin="round">
        <g id="WFL-Landing-1-(L)" transform="translate(-303.000000, -1459.000000)" stroke="#00B3BE" stroke-width="1.6335">
            <g id="Content/Homepage/Desktop/ValueProp" transform="translate(0.000000, 1304.000000)">
                <g id="Value-Props---An-Immediate-Difference">
                    <g id="Group-19" transform="translate(303.000000, 155.000000)">
                        <path d="M99.5361246,32.2531308 L94.2827886,21.0974148 C94.2283386,20.9710908 94.1499306,20.8556568 94.0540986,20.7576468 C93.6250326,20.3068008 92.7015606,19.8232848 91.8347166,19.8211068 L78.6403926,19.7949708 C77.9129406,19.7949708 77.2660746,20.2153248 77.0787666,20.7968508 C77.0330286,20.9253528 77.0112486,21.0560328 77.0090706,21.1910688 L76.9916401,33.2680788 C76.9894686,33.9410808 77.5383246,34.4921148 78.2113266,34.4921148 L98.7433326,34.5313345 C99.1658646,34.5334968 99.5644386,34.3091628 99.7800606,33.9585048 C100.006573,33.5991348 100.032709,33.1570008 99.8454006,32.7649608 C99.7473906,32.5711188 99.6450246,32.3990568 99.5361246,32.2531308 Z" id="Stroke-1"></path>
                        <path d="M16.517952,43.2557334 L70.377714,43.3559214 C71.052894,43.3559214 71.697582,43.0858494 72.144072,42.6197574 C72.631944,42.1471314 72.89766,41.5155114 72.89766,40.8403314 L72.939042,15.5406834 M44.074008,58.3579854 L76.724406,58.4189694 M97.689834,58.4559954 L103.62924,58.4690665 C105.02316,58.4712414 106.160076,57.3408594 106.164432,55.9447614 L106.197109,37.8455814 C106.19928,36.5779854 105.678738,34.7397534 105.018804,33.6812454 L97.099596,17.5183074 C96.391746,16.4510874 94.788738,15.5820654 93.52332,15.5798874 L72.932508,15.5406834 L72.954288,4.1061834 C72.958644,2.2962654 71.486316,0.8217594 69.67422,0.8174034 L19.878606,0.8370054 C18.068688,0.8348274 16.594182,2.3049774 16.589826,4.1170734 L16.4983432,53.6099454 C16.493994,56.1995874 18.595764,58.3100694 21.187584,58.3144254 L23.76198,58.3209594" id="Stroke-3"></path>
                        <path d="M33.901659,68.1326511 C28.299843,68.1217416 23.752179,63.5566536 23.7630495,57.9613716 C23.7630495,57.5715096 23.815341,57.1990716 23.874147,56.8070316 L23.902461,56.5914096 C23.976513,56.0970036 24.081057,55.6025976 24.235695,55.0842336 C24.279255,54.9383076 24.320637,54.7923816 24.372909,54.6486336 C24.499233,54.2827296 24.658227,53.9037576 24.871671,53.4616236 C24.993639,53.2198656 25.117785,52.9846416 25.257177,52.7537736 C25.413993,52.4945916 25.577343,52.2462996 25.751583,52.0045416 C26.052147,51.5972556 26.326575,51.2596656 26.607537,50.9678136 L26.670699,50.9002956 C26.731683,50.8349556 26.790489,50.7696156 26.849295,50.7129876 C28.768113,48.8464416 31.285881,47.8206036 33.938685,47.8271066 C39.538323,47.8358496 44.085987,52.3987596 44.0751165,57.9983976 C44.066385,63.5958576 39.499119,68.1435216 33.901659,68.1326511 Z" id="Stroke-5"></path>
                        <path d="M33.9282306,53.5012561 C31.4605566,53.4969072 29.4459066,55.5028452 29.4415435,57.9705192 C29.4371946,60.4381932 31.4431326,62.4484872 33.9108066,62.4528503 C36.3784806,62.4571992 38.3909526,60.4534392 38.3953157,57.9879432 C38.3996646,55.5180912 36.3959046,53.5077972 33.9282306,53.5012561 Z" id="Stroke-7"></path>
                        <path d="M87.1073676,53.5012561 C84.6396936,53.4969072 82.6272216,55.5028452 82.6206805,57.9705192 C82.6163316,60.4381932 84.6222696,62.4484872 87.0899436,62.4528503 C89.5576176,62.4571992 91.5700896,60.4534392 91.5744527,57.9879432 C91.5788016,55.5180912 89.5750416,53.5077972 87.1073676,53.5012561 Z" id="Stroke-9"></path>
                        <path d="M87.080796,68.2304433 C81.47898,68.2195338 76.931316,63.6566238 76.9421865,58.0591638 C76.9421865,57.6693018 76.996656,57.2968638 77.053284,56.9048238 L77.081598,56.6892018 C77.15565,56.1969738 77.262372,55.7025678 77.414832,55.1842038 C77.458392,55.0382778 77.501952,54.8923518 77.552046,54.7464258 C77.67837,54.3805218 77.837364,54.0015498 78.050808,53.5594158 C78.172776,53.3198358 78.296922,53.0846118 78.436314,52.8515658 C78.59313,52.5923838 78.75648,52.3440918 78.93072,52.1045118 C79.231284,51.6950478 79.50789,51.3596358 79.786674,51.0677838 L79.852014,50.9980878 C79.91082,50.9349258 79.969626,50.8695858 80.028432,50.8129578 C81.94725,48.9442338 84.465018,47.9205738 87.117822,47.924916 C92.71746,47.9358198 97.265124,52.4965518 97.2542535,58.0983678 C97.245522,63.6958278 92.680434,68.2413138 87.080796,68.2304433 Z" id="Stroke-11"></path>
                        <line x1="27.456957" y1="14.5930356" x2="7.364907" y2="14.5581876" id="Stroke-13"></line>
                        <line x1="27.4282074" y1="30.0751308" x2="7.3361574" y2="30.0402828" id="Stroke-15"></line>
                        <line x1="25.2641466" y1="22.5712674" x2="0.8160966" y2="22.5255294" id="Stroke-17"></line>
                    </g>
                </g>
            </g>
        </g>
    </g>
</svg>