<?xml version="1.0" encoding="UTF-8"?>
<svg width="49px" height="70px" viewBox="0 0 49 70" version="1.1" xmlns="http://www.w3.org/2000/svg" xmlns:xlink="http://www.w3.org/1999/xlink">
    <!-- Generator: sketchtool 63.1 (101010) - https://sketch.com -->
    <title>076837C4-48F7-4672-A69A-17FD6864D0F4</title>
    <desc>Created with sketchtool.</desc>
    <g id="Desktop" stroke="none" stroke-width="1" fill="none" fill-rule="evenodd" stroke-linecap="round" stroke-linejoin="round">
        <g id="WFL-Landing-1-(L)" transform="translate(-1228.000000, -1459.000000)" stroke="#00B3BE" stroke-width="1.5525">
            <g id="Content/Homepage/Desktop/ValueProp" transform="translate(0.000000, 1304.000000)">
                <g id="Value-Props---An-Immediate-Difference">
                    <g id="Group-7" transform="translate(1228.000000, 155.000000)">
                        <path d="M8.728155,28.421514 L8.728155,19.640574 C8.728155,11.958804 14.145345,0.776664 27.589995,0.776664 C32.485545,0.776664 39.124035,3.836124 40.680675,6.080004 C42.235245,8.323884 39.355875,11.747664 36.766305,10.139274 C34.176735,8.528814 31.015845,6.415344 27.589995,6.415344 C20.297385,6.415344 14.366835,12.347964 14.366835,19.640574 L14.366835,28.421514" id="Stroke-1"></path>
                        <path d="M24.233904,58.090824 C22.712454,58.090824 21.474594,56.850894 21.474594,55.329444 L21.474594,48.846204 C19.843434,47.877444 18.849834,46.146924 18.849834,44.230104 C18.849834,41.259654 21.263454,38.846034 24.233904,38.846034 C27.202284,38.846034 29.620044,41.259654 29.620044,44.230104 C29.620044,46.146924 28.626444,47.877444 26.995284,48.846204 L26.995284,55.329444 C26.995284,56.850894 25.757424,58.090824 24.233904,58.090824 Z" id="Stroke-3"></path>
                        <path d="M45.886104,68.473116 L2.583774,68.473116 C1.586034,68.473116 0.776664,67.663746 0.776664,66.666006 L0.776664,30.383046 C0.776664,29.389446 1.590174,28.575936 2.583774,28.575936 L45.886104,28.575936 C46.881774,28.575936 47.691144,29.383236 47.691144,30.380976 L47.691144,66.670146 C47.691144,67.665816 46.881774,68.473116 45.886104,68.473116 Z" id="Stroke-5"></path>
                    </g>
                </g>
            </g>
        </g>
    </g>
</svg>