<?xml version="1.0" encoding="UTF-8"?>
<svg width="100px" height="68px" viewBox="0 0 100 68" version="1.1" xmlns="http://www.w3.org/2000/svg" xmlns:xlink="http://www.w3.org/1999/xlink">
    <!-- Generator: sketchtool 63.1 (101010) - https://sketch.com -->
    <title>DE7C9DAA-CBCB-4A37-BEA0-6ABA5EC36D18</title>
    <desc>Created with sketchtool.</desc>
    <g id="Desktop" stroke="none" stroke-width="1" fill="none" fill-rule="evenodd">
        <g id="WFL-Landing-1-(L)" transform="translate(-606.000000, -1460.000000)">
            <g id="Content/Homepage/Desktop/ValueProp" transform="translate(0.000000, 1304.000000)">
                <g id="Value-Props---An-Immediate-Difference">
                    <g id="Group-21" transform="translate(606.000000, 156.000000)">
                        <path d="M33.8437242,12.7188666 C26.5888062,14.4220626 20.6341542,17.4277026 17.1275742,20.8558746 C2.0732382,35.5835106 14.7274182,51.7791186 16.7290002,54.1466046 L17.8310682,65.4046866 C17.9116542,66.2083686 18.5781222,66.8138526 19.3861602,66.8138526 L26.3143782,66.8138526 C27.0287622,66.8138526 27.6494922,66.3303366 27.8259102,65.6399106 L30.2979402,56.0109726 C42.6537342,58.1301666 51.5617542,56.8887066 55.3079142,56.1133386 L57.0982302,65.5397226 C57.2354442,66.2780646 57.8801322,66.8138526 58.6337202,66.8138526 L65.1481182,66.8138526 C65.8712142,66.8138526 66.4941222,66.3238026 66.6640062,65.6246646 L68.9138802,53.5236966 C80.0391042,62.6473386 95.8796982,54.4754826 95.8796982,54.4754826 C98.8396002,53.1643266 98.5107222,47.3163966 98.2319382,44.8639686 L98.2319382,44.8617906 C98.1709542,44.3238246 97.8268302,43.8490206 97.3324242,43.6203306 C96.8489082,43.4003526 96.2782722,43.4395566 95.8165362,43.7379426 C95.5333962,43.9274286 94.9431582,44.0101926 94.7210022,43.8315966 C94.5663642,43.7052726 94.2723342,43.4874726 93.8236662,43.1564166 C91.4082642,41.3682786 90.2343222,34.3638306 84.2252202,32.5430226" id="Stroke-1" stroke="#00B3BE" stroke-width="1.6335" stroke-linecap="round" stroke-linejoin="round"></path>
                        <path d="M81.0174618,33.1184502 C81.0174618,33.1184502 83.9555838,33.2251722 85.8874698,30.8642202 C87.8193558,28.5032682 90.0779418,25.7023602 90.3959298,23.2586442 C90.7117398,20.8149282 90.2739618,18.3864582 87.8607378,19.6453422 C87.1920918,20.1027222 83.4154398,21.4225902 81.4574178,21.7231542 C81.0806238,21.7819602 80.6907618,21.9431322 80.2442718,22.2262722 C72.9479718,16.7224662 64.9808478,13.5774342 57.1770738,12.1595562" id="Stroke-3" stroke="#00B3BE" stroke-width="1.6335" stroke-linecap="round" stroke-linejoin="round"></path>
                        <path d="M36.278946,18.7064064 C34.980858,16.8594624 34.220736,14.6095884 34.220736,12.1811184 C34.220736,5.9041224 39.310722,0.8163144 45.58554,0.8163144 C51.862536,0.8163144 56.950344,5.9041224 56.950344,12.1811184 C56.950344,14.2175484 56.414556,16.1298324 55.47366,17.7851124" id="Stroke-5" stroke="#00B3BE" stroke-width="1.6335" stroke-linecap="round" stroke-linejoin="round"></path>
                        <path d="M57.9036546,18.6020802 C57.9036546,18.6020802 45.6132006,13.5251622 33.4577826,19.9633302" id="Stroke-7" stroke="#00B3BE" stroke-width="1.6335" stroke-linecap="round" stroke-linejoin="round"></path>
                        <path d="M44.5039452,12.8656638 C43.5630492,12.7654758 42.8900472,12.4801578 42.5023632,12.2231538 L43.1753652,10.8793278 C43.5499812,11.1210858 44.2665432,11.4782778 45.0876492,11.4782778 C45.9828072,11.4782778 46.3399992,11.2365198 46.3399992,10.8488358 C46.3399992,10.2912678 45.2793132,10.1780118 44.2926792,9.7336998 C43.3387152,9.2893878 42.6657132,8.7601338 42.6657132,7.7168718 C42.6657132,6.6714318 43.3539612,5.9265558 44.5039452,5.6847978 L44.5039452,4.1536638 L46.1614032,4.1536638 L46.1614032,5.6129238 C46.9825092,5.7000438 47.5640352,5.9418018 47.8950912,6.1574238 L47.1894192,7.4598678 C46.8474732,7.2289998 46.1918952,7.0024878 45.5341392,7.0024878 C44.8023312,7.0024878 44.4582072,7.2289998 44.4582072,7.6166838 C44.4582072,8.1023778 45.2945592,8.2591938 46.1156652,8.5728258 C47.1894192,8.9910018 48.1477392,9.5050098 48.1477392,10.6637058 C48.1477392,11.8354698 47.4311772,12.5803458 46.1614032,12.8090358 L46.1614032,14.4839178 L44.5039452,14.4839178 L44.5039452,12.8656638 Z" id="Fill-9" fill="#00B3BE"></path>
                        <path d="M29.8087614,58.2782706 L31.2614874,63.9432486 C31.3660314,64.3483566 31.7319354,64.6314966 32.1522894,64.6314966 L36.2273274,64.6314966 C36.7021314,64.6314966 37.0963494,64.2764826 37.1420874,63.8038566 L38.3944374,57.1805586" id="Stroke-11" stroke="#00B3BE" stroke-width="1.6335" stroke-linecap="round" stroke-linejoin="round"></path>
                        <path d="M49.2661422,57.1807764 L50.5184922,63.8040744 C50.5664082,64.2767004 50.9584482,64.6317144 51.4332522,64.6317144 L55.5082902,64.6317144 C55.9308222,64.6317144 56.2967262,64.3485744 56.3990922,63.9412884" id="Stroke-13" stroke="#00B3BE" stroke-width="1.6335" stroke-linecap="round" stroke-linejoin="round"></path>
                        <path d="M6.9994386,30.4471332 C6.9994386,28.6916652 5.6185866,27.2694312 3.9153906,27.2694312 C2.2143726,27.2694312 0.8335206,28.6916652 0.8335206,30.4471332 L0.8160966,30.8522412 C1.0578546,34.4328732 4.5600786,36.5673132 9.3908826,34.5548412" id="Stroke-15" stroke="#00B3BE" stroke-width="1.6335" stroke-linecap="round" stroke-linejoin="round"></path>
                        <path d="M15.7325652,31.0341042 C13.3062732,37.6813602 15.2338032,43.8777702 17.6513832,48.0137922" id="Stroke-17" stroke="#00B3BE" stroke-width="1.6335" stroke-linecap="round" stroke-linejoin="round"></path>
                        <path d="M21.4541712,22.4689014 C19.7509752,24.1546734 18.4202172,25.8578694 17.4074472,27.5479974" id="Stroke-19" stroke="#00B3BE" stroke-width="1.6335" stroke-linecap="round" stroke-linejoin="round"></path>
                    </g>
                </g>
            </g>
        </g>
    </g>
</svg>